<?xml version="1.0" encoding="UTF-8"?>
<svg xmlns="http://www.w3.org/2000/svg" xmlns:xlink="http://www.w3.org/1999/xlink" width="841.89pt" height="595.276pt" viewBox="0 0 841.89 595.276" version="1.1">
<g id="surface1">
<path style=" stroke:none;fill-rule:nonzero;fill:rgb(100%,100%,100%);fill-opacity:1;" d="M 0 595.277344 L 841.890625 595.277344 L 841.890625 0 L 0 0 Z M 0 595.277344 "/>
<path style=" stroke:none;fill-rule:nonzero;fill:rgb(100%,100%,100%);fill-opacity:1;" d="M 645.589844 411.699219 L 645.589844 74.292969 C 645.589844 47.667969 623.917969 26 597.285156 26 L 263.429688 26 C 236.796875 26 215.128906 47.667969 215.128906 74.292969 L 215.128906 451.402344 L 215.132813 451.398438 L 215.132813 516.695313 C 215.132813 543.332031 236.796875 565 263.425781 565 L 597.285156 565 C 623.921875 565 645.589844 543.332031 645.589844 516.695313 L 645.589844 411.773438 C 645.589844 411.746094 645.589844 411.726563 645.589844 411.699219 "/>
<path style=" stroke:none;fill-rule:nonzero;fill:rgb(0%,36.499023%,28.999329%);fill-opacity:1;" d="M 262.164063 382.238281 L 598.554688 382.238281 C 605.3125 382.238281 611.511719 384.648438 616.324219 388.640625 L 616.324219 75.339844 C 616.324219 64.851563 607.785156 56.351563 597.25 56.351563 L 263.464844 56.351563 C 252.933594 56.351563 244.390625 64.851563 244.390625 75.339844 L 244.390625 388.640625 C 249.203125 384.648438 255.402344 382.238281 262.164063 382.238281 "/>
<path style=" stroke:none;fill-rule:nonzero;fill:rgb(100%,100%,100%);fill-opacity:1;" d="M 300.410156 151.0625 C 280.652344 151.0625 273.636719 138.492188 273.636719 127.722656 C 273.636719 113.9375 285.277344 104.304688 301.9375 104.304688 L 304.601563 104.304688 L 304.601563 100.210938 L 313.441406 100.210938 L 313.441406 142.261719 L 373.285156 142.261719 L 373.285156 104.304688 L 382.121094 104.304688 L 382.121094 142.261719 L 437.90625 142.261719 L 437.90625 104.304688 L 446.566406 104.304688 L 446.566406 151.0625 Z M 299.222656 113.105469 C 291.167969 113.105469 282.476563 118.691406 282.476563 127.722656 C 282.476563 137.769531 290.886719 142.261719 299.222656 142.261719 L 304.601563 142.261719 L 304.601563 113.105469 Z M 314.59375 88.703125 C 314.59375 85.679688 312.074219 83.316406 308.855469 83.316406 C 305.6875 83.316406 303.203125 85.679688 303.203125 88.703125 C 303.203125 91.816406 305.636719 94.167969 308.855469 94.167969 C 312.128906 94.167969 314.59375 91.816406 314.59375 88.703125 M 298.617188 88.703125 C 298.617188 85.679688 296.132813 83.316406 292.964844 83.316406 C 289.792969 83.316406 287.308594 85.679688 287.308594 88.703125 C 287.308594 91.816406 289.738281 94.167969 292.964844 94.167969 C 296.1875 94.167969 298.617188 91.816406 298.617188 88.703125 M 383.523438 162.648438 C 383.523438 159.585938 380.96875 157.179688 377.703125 157.179688 C 374.4375 157.179688 371.878906 159.585938 371.878906 162.648438 C 371.878906 165.8125 374.382813 168.199219 377.703125 168.199219 C 381.019531 168.199219 383.523438 165.8125 383.523438 162.648438 M 433.242188 162.8125 C 433.242188 159.746094 430.757813 157.347656 427.589844 157.347656 C 424.414063 157.347656 421.929688 159.746094 421.929688 162.8125 C 421.929688 165.882813 424.363281 168.199219 427.589844 168.199219 C 430.8125 168.199219 433.242188 165.882813 433.242188 162.8125 M 449.21875 162.8125 C 449.21875 159.746094 446.695313 157.347656 443.480469 157.347656 C 440.3125 157.347656 437.828125 159.746094 437.828125 162.8125 C 437.828125 165.882813 440.257813 168.199219 443.480469 168.199219 C 446.804688 168.199219 449.21875 165.933594 449.21875 162.8125 M 463.6875 169.097656 C 461.8125 169.097656 459.964844 168.84375 458.039063 168.320313 L 456.953125 168.027344 L 459.269531 159.5625 L 460.347656 159.84375 C 461.855469 160.234375 462.414063 160.296875 463.441406 160.296875 C 467.289063 160.296875 468.574219 159.003906 468.574219 151.339844 L 468.574219 104.304688 L 477.414063 104.304688 L 477.414063 142.261719 L 530.367188 142.261719 L 530.367188 104.304688 L 539.210938 104.304688 L 539.210938 109.46875 L 568.097656 109.46875 C 574.851563 109.46875 579.289063 111.25 582.945313 115.425781 C 585.730469 118.554688 587.261719 123.445313 587.261719 129.199219 L 587.261719 151.0625 L 476.445313 151.0625 L 476.472656 151.53125 C 476.796875 158.203125 475.558594 163.046875 472.804688 165.925781 C 469.769531 169.097656 465.664063 169.097656 463.695313 169.097656 Z M 539.210938 142.261719 L 578.421875 142.261719 L 578.421875 129.199219 C 578.421875 125.667969 577.738281 123.257813 576.203125 121.382813 C 574.511719 119.316406 571.785156 118.269531 568.097656 118.269531 L 539.210938 118.269531 Z M 564.121094 96.164063 C 564.121094 93.054688 561.566406 90.613281 558.300781 90.613281 C 555.035156 90.613281 552.480469 93.054688 552.480469 96.164063 C 552.480469 99.328125 554.980469 101.710938 558.300781 101.710938 C 561.621094 101.710938 564.121094 99.328125 564.121094 96.164063 "/>
<path style=" stroke:none;fill-rule:nonzero;fill:rgb(100%,100%,100%);fill-opacity:1;" d="M 308.675781 192.539063 C 305.449219 192.539063 303.019531 190.191406 303.019531 187.078125 C 303.019531 184.058594 305.503906 181.691406 308.675781 181.691406 C 311.894531 181.691406 314.414063 184.058594 314.414063 187.078125 C 314.414063 190.191406 311.949219 192.539063 308.675781 192.539063 M 298.4375 187.078125 C 298.4375 184.058594 295.953125 181.691406 292.78125 181.691406 C 289.609375 181.691406 287.128906 184.058594 287.128906 187.078125 C 287.128906 190.191406 289.554688 192.539063 292.78125 192.539063 C 296.007813 192.539063 298.4375 190.191406 298.4375 187.078125 M 435.988281 261.1875 C 435.988281 258.121094 433.507813 255.722656 430.339844 255.722656 C 427.167969 255.722656 424.683594 258.121094 424.683594 261.1875 C 424.683594 264.257813 427.113281 266.570313 430.339844 266.570313 C 433.5625 266.570313 435.988281 264.257813 435.988281 261.1875 M 451.96875 261.1875 C 451.96875 258.121094 449.445313 255.722656 446.230469 255.722656 C 443.058594 255.722656 440.574219 258.121094 440.574219 261.1875 C 440.574219 264.257813 443.007813 266.570313 446.230469 266.570313 C 449.554688 266.570313 451.96875 264.308594 451.96875 261.1875 M 501.296875 190.273438 C 501.296875 187.253906 498.808594 184.890625 495.636719 184.890625 C 492.46875 184.890625 489.984375 187.253906 489.984375 190.273438 C 489.984375 193.386719 492.410156 195.738281 495.636719 195.738281 C 498.863281 195.738281 501.296875 193.386719 501.296875 190.273438 M 517.269531 190.273438 C 517.269531 187.253906 514.746094 184.890625 511.53125 184.890625 C 508.363281 184.890625 505.878906 187.253906 505.878906 190.273438 C 505.878906 193.386719 508.308594 195.738281 511.53125 195.738281 C 514.800781 195.738281 517.269531 193.386719 517.269531 190.273438 M 390.308594 249.570313 L 390.445313 249.4375 L 561.820313 249.4375 L 561.820313 180.707031 L 552.976563 180.707031 L 552.976563 240.636719 L 519.574219 240.636719 L 519.574219 202.679688 L 507.332031 202.679688 C 490.539063 202.679688 479.6875 211.839844 479.6875 226.015625 C 479.6875 231.355469 481.386719 236.027344 484.730469 239.898438 L 485.367188 240.636719 L 443.320313 240.636719 L 443.320313 202.679688 L 434.484375 202.679688 L 434.484375 240.636719 L 395.9375 240.636719 L 396.136719 240.042969 C 396.992188 237.539063 397.425781 234.863281 397.425781 232.085938 C 397.425781 217.800781 386.605469 207.023438 372.253906 207.023438 C 358.464844 207.023438 347.65625 218.03125 347.65625 232.085938 C 347.65625 234.769531 348.085938 237.449219 348.929688 240.050781 L 349.121094 240.636719 L 313.261719 240.636719 L 313.261719 198.578125 L 304.421875 198.578125 L 304.421875 202.679688 L 301.757813 202.679688 C 285.09375 202.679688 273.457031 212.3125 273.457031 226.097656 C 273.457031 237.382813 280.894531 249.4375 301.757813 249.4375 L 354.558594 249.4375 L 354.6875 249.570313 C 359.339844 254.296875 365.574219 256.894531 372.253906 256.894531 C 379.121094 256.894531 385.699219 254.226563 390.308594 249.570313 M 388.589844 232 C 388.589844 241.132813 381.566406 248.015625 372.253906 248.015625 C 363.421875 248.015625 356.5 240.980469 356.5 232 C 356.5 222.929688 363.421875 215.820313 372.253906 215.820313 C 381.71875 215.820313 388.589844 222.625 388.589844 232 M 510.734375 211.480469 L 510.734375 240.636719 L 497.746094 240.636719 L 497.640625 240.574219 C 491.851563 237.191406 488.53125 231.886719 488.53125 226.015625 C 488.53125 216.574219 496.816406 211.480469 504.613281 211.480469 Z M 304.421875 211.480469 L 304.421875 240.636719 L 299.039063 240.636719 C 290.707031 240.636719 282.296875 236.136719 282.296875 226.097656 C 282.296875 217.070313 290.988281 211.480469 299.039063 211.480469 Z M 587.261719 180.707031 L 578.421875 180.707031 L 578.421875 249.4375 L 587.261719 249.4375 Z M 587.261719 180.707031 "/>
<path style=" stroke:none;fill-rule:nonzero;fill:rgb(100%,100%,100%);fill-opacity:1;" d="M 308.859375 290.914063 C 305.632813 290.914063 303.199219 288.5625 303.199219 285.445313 C 303.199219 282.429688 305.6875 280.0625 308.859375 280.0625 C 312.078125 280.0625 314.597656 282.429688 314.597656 285.445313 C 314.597656 288.5625 312.128906 290.914063 308.859375 290.914063 M 298.617188 285.445313 C 298.617188 282.429688 296.132813 280.0625 292.964844 280.0625 C 289.792969 280.0625 287.308594 282.429688 287.308594 285.445313 C 287.308594 288.5625 289.738281 290.914063 292.964844 290.914063 C 296.1875 290.914063 298.617188 288.5625 298.617188 285.445313 M 367.515625 347.808594 L 367.515625 301.050781 L 355.273438 301.050781 C 338.480469 301.050781 327.628906 310.210938 327.628906 324.386719 C 327.628906 329.722656 329.320313 334.394531 332.667969 338.269531 L 333.308594 339.007813 L 313.441406 339.007813 L 313.441406 296.953125 L 304.601563 296.953125 L 304.601563 301.050781 L 301.941406 301.050781 C 285.277344 301.050781 273.636719 310.679688 273.636719 324.472656 C 273.636719 335.753906 281.070313 347.808594 301.941406 347.808594 Z M 358.675781 309.851563 L 358.675781 339.007813 L 345.6875 339.007813 L 345.582031 338.945313 C 339.789063 335.558594 336.46875 330.257813 336.46875 324.386719 C 336.46875 317.34375 342.105469 309.851563 352.554688 309.851563 Z M 304.601563 309.851563 L 304.601563 339.007813 L 299.222656 339.007813 C 290.886719 339.007813 282.480469 334.515625 282.480469 324.472656 C 282.480469 315.445313 291.171875 309.851563 299.222656 309.851563 Z M 357.21875 288.558594 C 357.21875 285.449219 354.660156 283.015625 351.398438 283.015625 C 348.136719 283.015625 345.578125 285.449219 345.578125 288.558594 C 345.578125 291.722656 348.082031 294.109375 351.398438 294.109375 C 354.714844 294.109375 357.21875 291.722656 357.21875 288.558594 M 443.828125 292.90625 C 443.828125 289.796875 441.269531 287.359375 438.003906 287.359375 C 434.746094 287.359375 432.1875 289.796875 432.1875 292.90625 C 432.1875 296.070313 434.691406 298.457031 438.003906 298.457031 C 441.324219 298.457031 443.828125 296.070313 443.828125 292.90625 M 525.804688 347.945313 L 525.9375 347.808594 L 561.816406 347.808594 L 561.816406 279.078125 L 552.976563 279.078125 L 552.976563 339.007813 L 531.425781 339.007813 L 531.628906 338.417969 C 532.484375 335.914063 532.921875 333.238281 532.921875 330.453125 C 532.921875 316.167969 522.097656 305.394531 507.746094 305.394531 C 493.960938 305.394531 483.152344 316.40625 483.152344 330.453125 C 483.152344 333.144531 483.582031 335.828125 484.421875 338.425781 L 484.609375 339.007813 L 466.964844 339.007813 L 466.964844 325.945313 C 466.964844 320.191406 465.4375 315.300781 462.652344 312.175781 C 458.996094 307.996094 454.550781 306.214844 447.808594 306.214844 L 419.863281 306.214844 L 419.863281 301.050781 L 411.023438 301.050781 L 411.023438 339.007813 L 389.746094 339.007813 L 389.746094 279.078125 L 380.902344 279.078125 L 380.902344 347.808594 L 490.054688 347.808594 L 490.183594 347.945313 C 494.839844 352.667969 501.074219 355.269531 507.746094 355.269531 C 514.613281 355.269531 521.195313 352.601563 525.804688 347.945313 M 524.078125 330.371094 C 524.078125 339.5 517.058594 346.386719 507.746094 346.386719 C 498.914063 346.386719 491.996094 339.351563 491.996094 330.371094 C 491.996094 321.300781 498.914063 314.199219 507.746094 314.199219 C 517.214844 314.199219 524.078125 321 524.078125 330.371094 M 419.863281 315.015625 L 447.808594 315.015625 C 451.492188 315.015625 454.21875 316.066406 455.910156 318.128906 C 457.441406 320.003906 458.128906 322.414063 458.128906 325.945313 L 458.128906 339.007813 L 419.863281 339.007813 Z M 587.257813 279.078125 L 578.417969 279.078125 L 578.417969 347.8125 L 587.257813 347.8125 Z M 587.257813 279.078125 "/>
<path style=" stroke:none;fill-rule:nonzero;fill:rgb(81.599426%,61.999512%,16.899109%);fill-opacity:1;" d="M 597.296875 534.648438 L 263.421875 534.648438 C 252.914063 534.648438 244.394531 526.125 244.394531 515.617188 L 244.394531 411.265625 C 244.394531 400.757813 252.914063 392.238281 263.421875 392.238281 L 597.296875 392.238281 C 607.804688 392.238281 616.324219 400.757813 616.324219 411.265625 L 616.324219 515.617188 C 616.324219 526.125 607.804688 534.648438 597.296875 534.648438 "/>
<path style=" stroke:none;fill-rule:nonzero;fill:rgb(100%,100%,100%);fill-opacity:1;" d="M 326.0625 489.910156 L 348.566406 414.019531 L 380.113281 414.019531 C 369.648438 445.472656 347.191406 512.871094 346.9375 512.871094 L 305.191406 512.871094 C 304.9375 512.871094 282.480469 445.472656 272.015625 414.019531 L 303.5625 414.019531 "/>
<path style=" stroke:none;fill-rule:nonzero;fill:rgb(100%,100%,100%);fill-opacity:1;" d="M 588.652344 414.03125 L 484.09375 414.03125 L 491.980469 436.699219 L 525.398438 436.699219 L 525.398438 512.855469 L 555.382813 512.855469 L 555.382813 436.699219 L 588.703125 436.699219 "/>
<path style=" stroke:none;fill-rule:nonzero;fill:rgb(0%,36.499023%,28.999329%);fill-opacity:1;" d="M 482.640625 450.234375 L 479.445313 443.273438 C 463.035156 454.015625 435.828125 486.394531 435.828125 486.394531 L 425.847656 475.136719 L 422.226563 487.351563 L 421.761719 489.136719 C 425.5625 494.589844 435.980469 512.867188 435.980469 512.867188 C 459.992188 469.144531 482.640625 450.234375 482.640625 450.234375 "/>
<path style=" stroke:none;fill-rule:nonzero;fill:rgb(100%,100%,100%);fill-opacity:1;" d="M 432.1875 436.976563 L 442.460938 471.625 C 448.714844 464.714844 456.976563 456 464.886719 448.847656 C 458.363281 429.375 453.183594 414.015625 453.0625 414.015625 L 411.316406 414.015625 C 411.0625 414.015625 388.601563 481.414063 378.140625 512.867188 L 409.6875 512.867188 "/>
<path style=" stroke:none;fill-rule:nonzero;fill:rgb(100%,100%,100%);fill-opacity:1;" d="M 450.28125 497.996094 L 454.691406 512.871094 L 486.238281 512.871094 C 482.390625 501.308594 476.925781 484.890625 471.539063 468.753906 C 465.574219 475.8125 458.183594 485.5 450.28125 497.996094 "/>
</g>
</svg>
